<svg xmlns="http://www.w3.org/2000/svg" width="32" height="31.992" viewBox="0 0 32 31.992">
  <g id="_x31__stroke" transform="translate(0.107 -0.344)">
    <g id="Github_1_" transform="translate(-0.107 0.343)">
      <rect id="Rectangle_61" data-name="Rectangle 61" width="31.992" height="31.992" transform="translate(0.008)" fill="none"/>
      <path id="Github" d="M16,1.333a16.073,16.073,0,0,0-5.056,31.306c.8.147,1.092-.348,1.092-.774,0-.382-.014-1.392-.022-2.732-4.451.971-5.39-2.153-5.39-2.153A4.247,4.247,0,0,0,4.847,24.63c-1.453-1,.11-.977.11-.977a3.362,3.362,0,0,1,2.45,1.655,3.4,3.4,0,0,0,4.657,1.334A3.436,3.436,0,0,1,13.08,24.5c-3.553-.406-7.288-1.783-7.288-7.938a6.222,6.222,0,0,1,1.647-4.311A5.8,5.8,0,0,1,7.6,8S8.939,7.564,12,9.642a15.1,15.1,0,0,1,8.012,0C23.061,7.564,24.4,8,24.4,8a5.786,5.786,0,0,1,.159,4.251,6.212,6.212,0,0,1,1.645,4.311c0,6.17-3.741,7.529-7.3,7.926a3.843,3.843,0,0,1,1.086,2.975c0,2.147-.02,3.879-.02,4.407,0,.43.288.93,1.1.772A16.074,16.074,0,0,0,16,1.333" transform="translate(0 -1.11)" fill="#17252a" fill-rule="evenodd"/>
    </g>
  </g>
</svg>
