<svg xmlns="http://www.w3.org/2000/svg" width="32" height="32" viewBox="0 0 32 32">
  <g id="_14-linkedin" data-name="14-linkedin" transform="translate(0 -0.401)">
    <rect id="Rectangle_62" data-name="Rectangle 62" width="32" height="32" rx="11.2" transform="translate(0 0.401)" fill="#17252a"/>
    <rect id="Rectangle_63" data-name="Rectangle 63" width="4.562" height="16.531" transform="translate(4.542 11.958)" fill="#fff"/>
    <path id="Path_71" data-name="Path 71" d="M37.048,23.156c-3.365-1.283-5.8.889-6.841,2.1v-2.1H25.66V39.687h4.547v-8.72a4.269,4.269,0,0,1,1.127-2.991,2.4,2.4,0,0,1,1.723-.844,2.738,2.738,0,0,1,1.991.8,3.1,3.1,0,0,1,.859,2.2v9.554h5.133V29.451A6.068,6.068,0,0,0,37.048,23.156Z" transform="translate(-12.696 -11.197)" fill="#fff"/>
    <circle id="Ellipse_5" data-name="Ellipse 5" cx="2.85" cy="2.85" r="2.85" transform="translate(3.971 3.976)" fill="#fff"/>
  </g>
</svg>
