<svg xmlns="http://www.w3.org/2000/svg" width="718.32" height="626.185" viewBox="0 0 718.32 626.185">
  <g id="Group_22" data-name="Group 22" transform="translate(-2160.68 -2535.528)" opacity="0.47">
    <g id="patternpad_2_" data-name="patternpad (2)" transform="translate(2160.68 1657)">
      <path id="Path_44" data-name="Path 44" d="M333.343,333.343h0Z" transform="translate(384.977 585.685)" fill="#17252a"/>
      <path id="Path_45" data-name="Path 45" d="M333.343,0V333.343H0Z" transform="translate(0 878.528)" fill="#17252a"/>
      <path id="Path_25" data-name="Path 25" d="M333.343,1000.028V1333.37H0Z" transform="translate(0 -121.5)" fill="#def2f1"/>
      <path id="Path_74" data-name="Path 74" d="M333.343,0V333.343H0Z" transform="translate(192.489 878.528)" fill="#3aafa9"/>
      <path id="Path_27" data-name="Path 27" d="M666.685,1166.7h0Z" transform="translate(-169.025 -108)" fill="#17252a"/>
      <rect id="Rectangle_36" data-name="Rectangle 36" width="166.671" height="166.671" transform="translate(220.659 1040.699)" fill="#def2f1"/>
      <path id="Path_28" data-name="Path 28" d="M500.014,1166.7V1333.37H333.343Z" transform="translate(-112.683 -126)" fill="#2b7a78"/>
      <rect id="Rectangle_37" data-name="Rectangle 37" width="166.671" height="166.671" transform="translate(330.989 1040.699)" fill="#2b7a78"/>
      <path id="Path_29" data-name="Path 29" d="M500.014,1166.7H666.685L500.014,1333.37Z" transform="translate(-169.025 -126)" fill="#2b7a78"/>
      <path id="Path_30" data-name="Path 30" d="M833.356,1000.028,666.685,1166.7Z" transform="translate(-225.366 -108)" fill="#2b7a78"/>
      <path id="Path_46" data-name="Path 46" d="M166.671,166.671h0Z" transform="translate(551.648 892.028)" fill="#17252a"/>
      <path id="Path_31" data-name="Path 31" d="M1000.028,1166.7h0Z" transform="translate(-281.708 -108)" fill="#17252a"/>
      <rect id="Rectangle_41" data-name="Rectangle 41" width="166.671" height="166.671" transform="translate(441.319 1040.699)" fill="#17252a"/>
      <path id="Path_32" data-name="Path 32" d="M833.356,1166.7V1333.37H666.685Z" transform="translate(-225.366 -126)" fill="#17252a"/>
      <rect id="Rectangle_42" data-name="Rectangle 42" width="166.671" height="166.671" transform="translate(551.648 1040.699)" fill="#def2f1"/>
      <path id="Path_33" data-name="Path 33" d="M1000.028,1166.7V1333.37H833.356Z" transform="translate(-281.708 -126)" fill="#2b7a78"/>
      <path id="Path_76" data-name="Path 76" d="M333.343,0V333.343H0Z" transform="translate(0 1171.37)" fill="#17252a"/>
      <path id="Path_34" data-name="Path 34" d="M333.343,1333.37v333.343H0Z" transform="translate(0 -162)" fill="#2b7a78"/>
      <rect id="Rectangle_44" data-name="Rectangle 44" width="333.343" height="333.343" transform="translate(192.489 1171.37)" fill="#3aafa9"/>
      <rect id="Rectangle_45" data-name="Rectangle 45" width="166.671" height="166.671" transform="translate(220.659 1171.37)" fill="#2b7a78"/>
      <path id="Path_35" data-name="Path 35" d="M333.343,1333.37l166.671,166.671H333.343Z" transform="translate(-112.683 -162)" fill="#17252a"/>
      <rect id="Rectangle_46" data-name="Rectangle 46" width="166.671" height="166.671" transform="translate(330.989 1171.37)" fill="#17252a"/>
      <path id="Path_36" data-name="Path 36" d="M500.014,1333.37l166.671,166.671H500.014Z" transform="translate(-169.025 -162)" fill="#17252a"/>
      <rect id="Rectangle_47" data-name="Rectangle 47" width="166.671" height="166.671" transform="translate(220.659 1338.042)" fill="#2b7a78"/>
      <path id="Path_37" data-name="Path 37" d="M500.014,1500.042v166.671H333.343Z" transform="translate(-112.683 -162)" fill="#def2f1"/>
      <rect id="Rectangle_48" data-name="Rectangle 48" width="166.671" height="166.671" transform="translate(330.989 1338.042)" fill="#2b7a78"/>
      <path id="Path_38" data-name="Path 38" d="M500.014,1500.042H666.685v166.671Z" transform="translate(-169.025 -162)" fill="#def2f1"/>
      <rect id="Rectangle_49" data-name="Rectangle 49" width="333.343" height="333.343" transform="translate(384.977 1171.37)" fill="#3aafa9"/>
      <rect id="Rectangle_50" data-name="Rectangle 50" width="166.671" height="166.671" transform="translate(441.319 1171.37)" fill="#2b7a78"/>
      <path id="Path_39" data-name="Path 39" d="M666.685,1333.37H833.356L666.685,1500.042Z" transform="translate(-225.366 -162)" fill="#17252a"/>
      <rect id="Rectangle_51" data-name="Rectangle 51" width="166.671" height="166.671" transform="translate(551.648 1171.37)" fill="#2b7a78"/>
      <path id="Path_40" data-name="Path 40" d="M833.356,1333.37h166.671v166.671Z" transform="translate(-281.708 -162)" fill="#2b7a78"/>
      <rect id="Rectangle_52" data-name="Rectangle 52" width="166.671" height="166.671" transform="translate(441.319 1338.042)" fill="#17252a"/>
      <path id="Path_41" data-name="Path 41" d="M666.685,1500.042H833.356L666.685,1666.713Z" transform="translate(-225.366 -162)" fill="#def2f1"/>
      <path id="Path_75" data-name="Path 75" d="M166.671,0V166.671H0Z" transform="translate(551.648 1338.042)" fill="#17252a"/>
    </g>
  </g>
</svg>
