<svg xmlns="http://www.w3.org/2000/svg" width="718.32" height="626.185" viewBox="0 0 718.32 626.185">
  <g id="Group_29" data-name="Group 29" transform="translate(-2038.68 -30)">
    <path id="Path_49" data-name="Path 49" d="M333.343,0V333.343H0Z" transform="translate(2038.68 30)" fill="#def2f1"/>
    <path id="Path_1" data-name="Path 1" d="M333.343,0V333.343H0Z" transform="translate(2038.68 30)" fill="#3aafa9"/>
    <rect id="Rectangle_4" data-name="Rectangle 4" width="333.343" height="333.343" transform="translate(2231.169 30)" fill="#2b7a78"/>
    <path id="Path_2" data-name="Path 2" d="M333.343,0,500.014,166.671H333.343Z" transform="translate(1925.997 30)" fill="#3aafa9"/>
    <rect id="Rectangle_6" data-name="Rectangle 6" width="166.671" height="166.671" transform="translate(2369.669 30)" fill="#def2f1"/>
    <path id="Path_3" data-name="Path 3" d="M500.014,0H666.685L500.014,166.671Z" transform="translate(1869.655 30)" fill="#3aafa9"/>
    <rect id="Rectangle_7" data-name="Rectangle 7" width="166.671" height="166.671" transform="translate(2259.34 196.671)" fill="#def2f1"/>
    <path id="Path_4" data-name="Path 4" d="M333.343,166.671H500.014V333.343Z" transform="translate(1925.997 30)" fill="#def2f1"/>
    <rect id="Rectangle_8" data-name="Rectangle 8" width="166.671" height="166.671" transform="translate(2369.669 196.671)" fill="#def2f1"/>
    <path id="Path_5" data-name="Path 5" d="M666.685,166.671V333.343H500.014Z" transform="translate(1869.655 30)" fill="#def2f1"/>
    <rect id="Rectangle_9" data-name="Rectangle 9" width="333.343" height="333.343" transform="translate(2423.657 30)" fill="#2b7a78"/>
    <rect id="Rectangle_10" data-name="Rectangle 10" width="166.671" height="166.671" transform="translate(2479.999 30)" fill="#3aafa9"/>
    <path id="Path_6" data-name="Path 6" d="M833.356,0V166.671H666.685Z" transform="translate(1813.314 30)" fill="#17252a"/>
    <path id="Path_48" data-name="Path 48" d="M166.671,0V166.671H0Z" transform="translate(2590.329 30)" fill="#def2f1"/>
    <path id="Path_7" data-name="Path 7" d="M1000.028,0,833.356,166.671Z" transform="translate(1756.972 30)" fill="#17252a"/>
    <rect id="Rectangle_12" data-name="Rectangle 12" width="166.671" height="166.671" transform="translate(2479.999 196.671)" fill="#3aafa9"/>
    <path id="Path_8" data-name="Path 8" d="M666.685,166.671H833.356V333.343Z" transform="translate(1813.314 30)" fill="#3aafa9"/>
    <rect id="Rectangle_13" data-name="Rectangle 13" width="166.671" height="166.671" transform="translate(2590.329 196.671)" fill="#3aafa9"/>
    <path id="Path_9" data-name="Path 9" d="M833.356,166.671h166.671L833.356,333.343Z" transform="translate(1756.972 30)" fill="#def2f1"/>
    <rect id="Rectangle_14" data-name="Rectangle 14" width="333.343" height="333.343" transform="translate(2038.68 322.843)" fill="#2b7a78"/>
    <rect id="Rectangle_15" data-name="Rectangle 15" width="166.671" height="166.671" transform="translate(2038.68 327.343)" fill="#3aafa9"/>
    <path id="Path_10" data-name="Path 10" d="M0,333.343,166.671,500.014H0Z" transform="translate(2038.68 -6)" fill="#17252a"/>
    <rect id="Rectangle_16" data-name="Rectangle 16" width="166.671" height="166.671" transform="translate(2149.01 327.343)" fill="#17252a"/>
    <path id="Path_11" data-name="Path 11" d="M166.671,333.343H333.343L166.671,500.014Z" transform="translate(1982.339 -6)" fill="#def2f1"/>
    <path id="Path_50" data-name="Path 50" d="M0,0H166.671V166.671Z" transform="translate(2149.01 476.014)" fill="#17252a"/>
    <path id="Path_13" data-name="Path 13" d="M166.671,666.685Z" transform="translate(1982.339 -24)" fill="#17252a"/>
    <rect id="Rectangle_19" data-name="Rectangle 19" width="333.343" height="333.343" transform="translate(2231.169 322.843)" fill="#2b7a78"/>
    <rect id="Rectangle_20" data-name="Rectangle 20" width="166.671" height="166.671" transform="translate(2259.34 327.343)" fill="#3aafa9"/>
    <path id="Path_14" data-name="Path 14" d="M333.343,333.343,500.014,500.014H333.343Z" transform="translate(1925.997 -6)" fill="#17252a"/>
    <rect id="Rectangle_21" data-name="Rectangle 21" width="166.671" height="166.671" transform="translate(2369.669 327.343)" fill="#def2f1"/>
    <path id="Path_15" data-name="Path 15" d="M666.685,333.343V500.014H500.014Z" transform="translate(1869.655 -6)" fill="#17252a"/>
    <rect id="Rectangle_22" data-name="Rectangle 22" width="166.671" height="166.671" transform="translate(2259.34 476.014)" fill="#def2f1"/>
    <path id="Path_16" data-name="Path 16" d="M333.343,500.014H500.014V666.685Z" transform="translate(1925.997 -24)" fill="#3aafa9"/>
    <path id="Path_17" data-name="Path 17" d="M500.014,500.014H666.685V666.685Z" transform="translate(1869.655 -24)" fill="#3aafa9"/>
    <rect id="Rectangle_24" data-name="Rectangle 24" width="333.343" height="333.343" transform="translate(2423.657 322.843)" fill="#2b7a78"/>
    <rect id="Rectangle_25" data-name="Rectangle 25" width="166.671" height="166.671" transform="translate(2479.999 327.343)" fill="#3aafa9"/>
    <path id="Path_18" data-name="Path 18" d="M666.685,333.343,833.356,500.014H666.685Z" transform="translate(1813.314 -6)" fill="#def2f1"/>
    <rect id="Rectangle_26" data-name="Rectangle 26" width="166.671" height="166.671" transform="translate(2590.329 327.343)" fill="#3aafa9"/>
    <path id="Path_19" data-name="Path 19" d="M1000.028,333.343V500.014H833.356Z" transform="translate(1756.972 -6)" fill="#def2f1"/>
    <rect id="Rectangle_27" data-name="Rectangle 27" width="166.671" height="166.671" transform="translate(2479.999 476.014)" fill="#3aafa9"/>
    <path id="Path_20" data-name="Path 20" d="M833.356,500.014V666.685H666.685Z" transform="translate(1813.314 -24)" fill="#17252a"/>
    <path id="Path_47" data-name="Path 47" d="M166.671,166.671h0Z" transform="translate(2590.329 476.014)" fill="#17252a"/>
    <path id="Path_21" data-name="Path 21" d="M1000.028,666.685h0Z" transform="translate(1756.972 -24)" fill="#3aafa9"/>
  </g>
</svg>
